<svg width="28" height="28" xmlns="http://www.w3.org/2000/svg" xmlns:xlink="http://www.w3.org/1999/xlink" viewBox="0 0 31.69 31.69"><defs><style>.a{fill:url(#a);}</style><linearGradient id="a" y1="18.15" x2="31.69" y2="18.15" gradientTransform="matrix(1, 0, 0, -1, 0, 34)" gradientUnits="userSpaceOnUse"><stop offset="0" stop-color="#fc00ff"/><stop offset="1" stop-color="#15c1ff"/></linearGradient></defs><title>logo</title><path class="a" d="M15.83,0a.63.63,0,0,0-.52.28L11.83,5.5h0a1,1,0,0,1-.46.19L5.21,4.47a.64.64,0,0,0-.75.75L5.7,11.37a1,1,0,0,1-.19.46L.28,15.31a.63.63,0,0,0,0,1.05L5.5,19.85h0a1,1,0,0,1,.19.46L4.46,26.47a.64.64,0,0,0,.75.74L11.37,26a1,1,0,0,1,.46.19l3.48,5.22a.63.63,0,0,0,1,0l3.48-5.22h0A1,1,0,0,1,20.3,26l6.16,1.23a.64.64,0,0,0,.74-.75L26,20.31a1,1,0,0,1,.19-.46h0l5.22-3.48a.63.63,0,0,0,0-1.05l-5.22-3.48h0a1,1,0,0,1-.19-.46l1.23-6.16a.64.64,0,0,0-.75-.75L20.31,5.7a1,1,0,0,1-.46-.19L16.37.28A.63.63,0,0,0,15.83,0Zm0,1.78,3,4.43a1.67,1.67,0,0,0,1.76.73l5.22-1-1,5.22a1.67,1.67,0,0,0,.73,1.76l4.43,3-4.43,3a1.67,1.67,0,0,0-.73,1.76l1,5.22-5.22-1a1.67,1.67,0,0,0-1.76.73l-3,4.43-3-4.43a1.67,1.67,0,0,0-1.76-.73l-5.22,1,1-5.22a1.67,1.67,0,0,0-.73-1.76l-4.43-3,4.43-3a1.67,1.67,0,0,0,.73-1.76L5.9,5.9l5.22,1a1.67,1.67,0,0,0,1.76-.73Zm0,5.83a8.24,8.24,0,1,0,8.24,8.24h0A8.25,8.25,0,0,0,15.84,7.6Zm0,1.27a7,7,0,1,1-7,7,7,7,0,0,1,7-7h0Z"/></svg>